<mxfile host="Electron" modified="2023-08-07T15:08:43.478Z" agent="Mozilla/5.0 (Windows NT 10.0; Win64; x64) AppleWebKit/537.36 (KHTML, like Gecko) draw.io/21.6.5 Chrome/114.0.5735.243 Electron/25.3.1 Safari/537.36" etag="ShFqWGFUVSbF6tnl_88S" version="21.6.5" type="device">
  <diagram name="Page-1" id="7QoSib7LsPOei8o-_nD2">
    <mxGraphModel dx="880" dy="545" grid="1" gridSize="10" guides="1" tooltips="1" connect="1" arrows="1" fold="1" page="1" pageScale="1" pageWidth="1169" pageHeight="827" math="0" shadow="0">
      <root>
        <mxCell id="0" />
        <mxCell id="1" parent="0" />
        <mxCell id="eP-pgBNWTAgdWsYKI110-95" value="Account" style="rounded=0;orthogonalLoop=1;jettySize=auto;html=1;endArrow=halfCircle;endFill=0;endSize=4;strokeWidth=1;sketch=0;fontSize=12;curved=1;" edge="1" parent="1">
          <mxGeometry x="1" y="22" relative="1" as="geometry">
            <mxPoint x="652.39" y="282" as="sourcePoint" />
            <mxPoint x="702.39" y="282" as="targetPoint" />
            <mxPoint as="offset" />
          </mxGeometry>
        </mxCell>
        <mxCell id="eP-pgBNWTAgdWsYKI110-42" value="" style="fontStyle=1;align=center;verticalAlign=middle;childLayout=stackLayout;horizontal=1;horizontalStack=0;resizeParent=1;resizeParentMax=0;resizeLast=0;marginBottom=0;" vertex="1" parent="1">
          <mxGeometry x="92.38999999999999" width="560" height="360" as="geometry" />
        </mxCell>
        <mxCell id="eP-pgBNWTAgdWsYKI110-43" value="«component»&lt;br&gt;&lt;b&gt;Store&lt;/b&gt;" style="html=1;align=center;spacingLeft=4;verticalAlign=top;strokeColor=none;fillColor=none;whiteSpace=wrap;" vertex="1" parent="eP-pgBNWTAgdWsYKI110-42">
          <mxGeometry width="560" height="40" as="geometry" />
        </mxCell>
        <mxCell id="eP-pgBNWTAgdWsYKI110-44" value="" style="shape=module;jettyWidth=10;jettyHeight=4;" vertex="1" parent="eP-pgBNWTAgdWsYKI110-43">
          <mxGeometry x="1" width="16" height="20" relative="1" as="geometry">
            <mxPoint x="-25" y="9" as="offset" />
          </mxGeometry>
        </mxCell>
        <mxCell id="eP-pgBNWTAgdWsYKI110-45" value="" style="line;strokeWidth=1;fillColor=none;align=left;verticalAlign=middle;spacingTop=-1;spacingLeft=3;spacingRight=3;rotatable=0;labelPosition=right;points=[];portConstraint=eastwest;" vertex="1" parent="eP-pgBNWTAgdWsYKI110-42">
          <mxGeometry y="40" width="560" height="8" as="geometry" />
        </mxCell>
        <mxCell id="eP-pgBNWTAgdWsYKI110-46" value="internal structure" style="align=center;spacingLeft=4;verticalAlign=top;strokeColor=none;fillColor=none;" vertex="1" parent="eP-pgBNWTAgdWsYKI110-42">
          <mxGeometry y="48" width="560" height="312" as="geometry" />
        </mxCell>
        <mxCell id="eP-pgBNWTAgdWsYKI110-78" style="edgeStyle=orthogonalEdgeStyle;rounded=0;orthogonalLoop=1;jettySize=auto;html=1;exitX=0;exitY=0.5;exitDx=0;exitDy=0;exitPerimeter=0;entryX=0;entryY=0.5;entryDx=0;entryDy=0;endArrow=none;endFill=0;" edge="1" parent="1" source="eP-pgBNWTAgdWsYKI110-76" target="eP-pgBNWTAgdWsYKI110-39">
          <mxGeometry relative="1" as="geometry" />
        </mxCell>
        <mxCell id="eP-pgBNWTAgdWsYKI110-79" style="edgeStyle=orthogonalEdgeStyle;rounded=0;orthogonalLoop=1;jettySize=auto;html=1;exitX=1;exitY=0.5;exitDx=0;exitDy=0;exitPerimeter=0;entryX=1;entryY=0.5;entryDx=0;entryDy=0;endArrow=none;endFill=0;" edge="1" parent="1" source="eP-pgBNWTAgdWsYKI110-76" target="eP-pgBNWTAgdWsYKI110-35">
          <mxGeometry relative="1" as="geometry" />
        </mxCell>
        <mxCell id="eP-pgBNWTAgdWsYKI110-76" value="Person" style="shape=providedRequiredInterface;html=1;verticalLabelPosition=bottom;sketch=0;direction=west;verticalAlign=bottom;" vertex="1" parent="1">
          <mxGeometry x="372.39" y="128.5" width="20" height="20" as="geometry" />
        </mxCell>
        <mxCell id="eP-pgBNWTAgdWsYKI110-81" style="edgeStyle=orthogonalEdgeStyle;rounded=0;orthogonalLoop=1;jettySize=auto;html=1;exitX=0.5;exitY=1;exitDx=0;exitDy=0;entryX=1;entryY=0.5;entryDx=0;entryDy=0;entryPerimeter=0;endArrow=none;endFill=0;" edge="1" parent="1" source="eP-pgBNWTAgdWsYKI110-35" target="eP-pgBNWTAgdWsYKI110-80">
          <mxGeometry relative="1" as="geometry" />
        </mxCell>
        <mxCell id="eP-pgBNWTAgdWsYKI110-100" style="edgeStyle=orthogonalEdgeStyle;rounded=0;orthogonalLoop=1;jettySize=auto;html=1;exitX=0;exitY=0.5;exitDx=0;exitDy=0;entryX=-0.001;entryY=0.116;entryDx=0;entryDy=0;entryPerimeter=0;endArrow=none;endFill=0;" edge="1" parent="1" source="eP-pgBNWTAgdWsYKI110-35" target="eP-pgBNWTAgdWsYKI110-46">
          <mxGeometry relative="1" as="geometry">
            <Array as="points">
              <mxPoint x="132.39" y="139" />
              <mxPoint x="132.39" y="84" />
            </Array>
          </mxGeometry>
        </mxCell>
        <mxCell id="eP-pgBNWTAgdWsYKI110-102" value="OrderEntry" style="edgeLabel;html=1;align=center;verticalAlign=middle;resizable=0;points=[];" vertex="1" connectable="0" parent="eP-pgBNWTAgdWsYKI110-100">
          <mxGeometry x="-0.5462" y="1" relative="1" as="geometry">
            <mxPoint x="-11" y="12" as="offset" />
          </mxGeometry>
        </mxCell>
        <mxCell id="eP-pgBNWTAgdWsYKI110-35" value="«component»&lt;br&gt;&lt;b&gt;:Order&lt;/b&gt;" style="html=1;dropTarget=0;whiteSpace=wrap;" vertex="1" parent="1">
          <mxGeometry x="187.39" y="107" width="140" height="63" as="geometry" />
        </mxCell>
        <mxCell id="eP-pgBNWTAgdWsYKI110-36" value="" style="shape=module;jettyWidth=8;jettyHeight=4;" vertex="1" parent="eP-pgBNWTAgdWsYKI110-35">
          <mxGeometry x="1" width="20" height="20" relative="1" as="geometry">
            <mxPoint x="-27" y="7" as="offset" />
          </mxGeometry>
        </mxCell>
        <mxCell id="eP-pgBNWTAgdWsYKI110-82" style="edgeStyle=orthogonalEdgeStyle;rounded=0;orthogonalLoop=1;jettySize=auto;html=1;exitX=0.5;exitY=0;exitDx=0;exitDy=0;entryX=0;entryY=0.5;entryDx=0;entryDy=0;entryPerimeter=0;endArrow=none;endFill=0;" edge="1" parent="1" source="eP-pgBNWTAgdWsYKI110-37" target="eP-pgBNWTAgdWsYKI110-80">
          <mxGeometry relative="1" as="geometry" />
        </mxCell>
        <mxCell id="eP-pgBNWTAgdWsYKI110-105" value="OrderableItem" style="edgeLabel;html=1;align=center;verticalAlign=middle;resizable=0;points=[];" vertex="1" connectable="0" parent="eP-pgBNWTAgdWsYKI110-82">
          <mxGeometry x="0.0811" relative="1" as="geometry">
            <mxPoint x="40" as="offset" />
          </mxGeometry>
        </mxCell>
        <mxCell id="eP-pgBNWTAgdWsYKI110-37" value="«component»&lt;br&gt;&lt;b&gt;:Product&lt;/b&gt;" style="html=1;dropTarget=0;whiteSpace=wrap;" vertex="1" parent="1">
          <mxGeometry x="187.39" y="267" width="140" height="63" as="geometry" />
        </mxCell>
        <mxCell id="eP-pgBNWTAgdWsYKI110-38" value="" style="shape=module;jettyWidth=8;jettyHeight=4;" vertex="1" parent="eP-pgBNWTAgdWsYKI110-37">
          <mxGeometry x="1" width="20" height="20" relative="1" as="geometry">
            <mxPoint x="-27" y="7" as="offset" />
          </mxGeometry>
        </mxCell>
        <mxCell id="eP-pgBNWTAgdWsYKI110-39" value="«component»&lt;br&gt;&lt;b&gt;:Customer&lt;/b&gt;" style="html=1;dropTarget=0;whiteSpace=wrap;" vertex="1" parent="1">
          <mxGeometry x="427.39" y="107" width="140" height="63" as="geometry" />
        </mxCell>
        <mxCell id="eP-pgBNWTAgdWsYKI110-40" value="" style="shape=module;jettyWidth=8;jettyHeight=4;" vertex="1" parent="eP-pgBNWTAgdWsYKI110-39">
          <mxGeometry x="1" width="20" height="20" relative="1" as="geometry">
            <mxPoint x="-27" y="7" as="offset" />
          </mxGeometry>
        </mxCell>
        <mxCell id="eP-pgBNWTAgdWsYKI110-80" value="" style="shape=providedRequiredInterface;html=1;verticalLabelPosition=bottom;sketch=0;direction=north;" vertex="1" parent="1">
          <mxGeometry x="247.39" y="210" width="20" height="20" as="geometry" />
        </mxCell>
        <mxCell id="eP-pgBNWTAgdWsYKI110-84" style="edgeStyle=orthogonalEdgeStyle;rounded=0;orthogonalLoop=1;jettySize=auto;html=1;exitX=1;exitY=0.5;exitDx=0;exitDy=0;exitPerimeter=0;entryX=0.5;entryY=1;entryDx=0;entryDy=0;endArrow=none;endFill=0;" edge="1" parent="1" source="eP-pgBNWTAgdWsYKI110-83" target="eP-pgBNWTAgdWsYKI110-39">
          <mxGeometry relative="1" as="geometry" />
        </mxCell>
        <mxCell id="eP-pgBNWTAgdWsYKI110-106" value="Account" style="edgeLabel;html=1;align=center;verticalAlign=middle;resizable=0;points=[];" vertex="1" connectable="0" parent="eP-pgBNWTAgdWsYKI110-84">
          <mxGeometry x="-0.45" y="1" relative="1" as="geometry">
            <mxPoint x="-25" as="offset" />
          </mxGeometry>
        </mxCell>
        <mxCell id="eP-pgBNWTAgdWsYKI110-83" value="" style="shape=providedRequiredInterface;html=1;verticalLabelPosition=bottom;sketch=0;rotation=0;direction=north;" vertex="1" parent="1">
          <mxGeometry x="487.39" y="210" width="20" height="20" as="geometry" />
        </mxCell>
        <mxCell id="eP-pgBNWTAgdWsYKI110-103" style="edgeStyle=orthogonalEdgeStyle;rounded=0;orthogonalLoop=1;jettySize=auto;html=1;exitX=0;exitY=0.5;exitDx=0;exitDy=0;endArrow=oval;endFill=0;endSize=12;" edge="1" parent="1" source="eP-pgBNWTAgdWsYKI110-85">
          <mxGeometry relative="1" as="geometry">
            <mxPoint x="32.389999999999986" y="84" as="targetPoint" />
          </mxGeometry>
        </mxCell>
        <mxCell id="eP-pgBNWTAgdWsYKI110-104" value="OrderEntry" style="edgeLabel;html=1;align=center;verticalAlign=middle;resizable=0;points=[];" vertex="1" connectable="0" parent="eP-pgBNWTAgdWsYKI110-103">
          <mxGeometry x="0.8739" y="2" relative="1" as="geometry">
            <mxPoint x="-5" y="-20" as="offset" />
          </mxGeometry>
        </mxCell>
        <mxCell id="eP-pgBNWTAgdWsYKI110-85" value="" style="fontStyle=0;labelPosition=right;verticalLabelPosition=middle;align=left;verticalAlign=middle;spacingLeft=2;" vertex="1" parent="1">
          <mxGeometry x="87.38999999999999" y="79" width="10" height="10" as="geometry" />
        </mxCell>
        <mxCell id="eP-pgBNWTAgdWsYKI110-86" value="" style="fontStyle=0;labelPosition=right;verticalLabelPosition=middle;align=left;verticalAlign=middle;spacingLeft=2;" vertex="1" parent="1">
          <mxGeometry x="252.39" y="165" width="10" height="10" as="geometry" />
        </mxCell>
        <mxCell id="eP-pgBNWTAgdWsYKI110-87" value="" style="fontStyle=0;labelPosition=right;verticalLabelPosition=middle;align=left;verticalAlign=middle;spacingLeft=2;" vertex="1" parent="1">
          <mxGeometry x="252.39" y="264" width="10" height="10" as="geometry" />
        </mxCell>
        <mxCell id="eP-pgBNWTAgdWsYKI110-88" value="" style="fontStyle=0;labelPosition=right;verticalLabelPosition=middle;align=left;verticalAlign=middle;spacingLeft=2;" vertex="1" parent="1">
          <mxGeometry x="322.39" y="134" width="10" height="10" as="geometry" />
        </mxCell>
        <mxCell id="eP-pgBNWTAgdWsYKI110-89" value="" style="fontStyle=0;labelPosition=right;verticalLabelPosition=middle;align=left;verticalAlign=middle;spacingLeft=2;" vertex="1" parent="1">
          <mxGeometry x="422.39" y="134" width="10" height="10" as="geometry" />
        </mxCell>
        <mxCell id="eP-pgBNWTAgdWsYKI110-90" value="" style="fontStyle=0;labelPosition=right;verticalLabelPosition=middle;align=left;verticalAlign=middle;spacingLeft=2;" vertex="1" parent="1">
          <mxGeometry x="492.39" y="165" width="10" height="10" as="geometry" />
        </mxCell>
        <mxCell id="eP-pgBNWTAgdWsYKI110-92" style="edgeStyle=orthogonalEdgeStyle;rounded=0;orthogonalLoop=1;jettySize=auto;html=1;exitX=1;exitY=0.75;exitDx=0;exitDy=0;entryX=0;entryY=0.5;entryDx=0;entryDy=0;entryPerimeter=0;endArrow=none;endFill=0;" edge="1" parent="1" source="eP-pgBNWTAgdWsYKI110-46" target="eP-pgBNWTAgdWsYKI110-83">
          <mxGeometry relative="1" as="geometry">
            <Array as="points">
              <mxPoint x="497.39" y="282" />
            </Array>
          </mxGeometry>
        </mxCell>
        <mxCell id="eP-pgBNWTAgdWsYKI110-94" value="" style="fontStyle=0;labelPosition=right;verticalLabelPosition=middle;align=left;verticalAlign=middle;spacingLeft=2;" vertex="1" parent="1">
          <mxGeometry x="647.39" y="277" width="10" height="10" as="geometry" />
        </mxCell>
        <mxCell id="eP-pgBNWTAgdWsYKI110-96" value="" style="ellipse;whiteSpace=wrap;html=1;align=center;aspect=fixed;fillColor=none;strokeColor=none;resizable=0;perimeter=centerPerimeter;rotatable=0;allowArrows=0;points=[];outlineConnect=1;" vertex="1" parent="1">
          <mxGeometry x="662.39" y="276" width="10" height="10" as="geometry" />
        </mxCell>
        <mxCell id="eP-pgBNWTAgdWsYKI110-101" value="" style="fontStyle=0;labelPosition=right;verticalLabelPosition=middle;align=left;verticalAlign=middle;spacingLeft=2;" vertex="1" parent="1">
          <mxGeometry x="182.39" y="133" width="10" height="10" as="geometry" />
        </mxCell>
        <mxCell id="eP-pgBNWTAgdWsYKI110-107" value="" style="ellipse;whiteSpace=wrap;html=1;aspect=fixed;" vertex="1" parent="1">
          <mxGeometry x="152.39" y="133" width="10" height="10" as="geometry" />
        </mxCell>
        <mxCell id="eP-pgBNWTAgdWsYKI110-108" value="&lt;b&gt;Figure 11.47 Internal structure of a Component&lt;/b&gt;" style="text;html=1;align=left;verticalAlign=middle;resizable=0;points=[];autosize=1;strokeColor=none;fillColor=none;" vertex="1" parent="1">
          <mxGeometry y="360" width="290" height="30" as="geometry" />
        </mxCell>
      </root>
    </mxGraphModel>
  </diagram>
</mxfile>
